{"title":"Mausam (2011) (Best print) DVDscr {-=MTR=- Sohi} ","uid":6703135,"size":838951073,"categoryP":"video","categoryS":"movies","magnet":"?xt=urn:btih:042abc1db14fed134a30b6b38d59d8955ee1a0e3&amp;dn=Mausam+%282011%29+%28Best+print%29+DVDscr+%7B-%3DMTR%3D-+Sohi%7D+&amp;tr=udp%3A%2F%2Ftracker.openbittorrent.com%3A80&amp;tr=udp%3A%2F%2Fopen.demonii.com%3A1337&amp;tr=udp%3A%2F%2Ftracker.coppersurfer.tk%3A6969&amp;tr=udp%3A%2F%2Fexodus.desync.com%3A6969","seeders":0,"leechers":1,"uploader":"kingsaab","files":4,"time":1317056319,"description":"[CENTER][IMG]http://makeagif.com/media/9-20-2011/9qDvdz.gif[/IMG]\n\n\n[QUOTE]Format                           : Matroska\nFile size                        : 800 MiB\nDuration                         : 2h 49mn\nOverall bit rate                 : 659 Kbps\nMovie name                       : Rip By Deadman\nEncoded date                     : UTC 2011-09-26 10:02:31\nWriting application              : mkvmerge v4.4.0 ('Die Wiederkehr') built on Oct 31 2010 21:52:48\nWriting library                  : libebml v1.0.0 + libmatroska v1.0.0\n\nVideo\nID                               : 1\nFormat                           : AVC\nFormat/Info                      : Advanced Video Codec\nFormat profile                   : &lt;a class=&quot;__cf_email__&quot; href=&quot;/cdn-cgi/l/email-protection&quot; data-cfemail=&quot;b5fddcd2ddf5f9879b84&quot;&gt;[email&amp;#160;protected]&lt;/a&gt;&lt;script data-cfhash='f9e31' type=&quot;text/javascript&quot;&gt;\n/* &lt;![CDATA[ */!function(){try{var t=&quot;currentScript&quot;in document?document.currentScript:function(){for(var t=document.getElementsByTagName(&quot;script&quot;),e=t.length;e--;)if(t[e].getAttribute(&quot;data-cfhash&quot;))return t[e]}();if(t&amp;&amp;t.previousSibling){var e,r,n,i,c=t.previousSibling,a=c.getAttribute(&quot;data-cfemail&quot;);if(a){for(e=&quot;&quot;,r=parseInt(a.substr(0,2),16),n=2;a.length-n;n+=2)i=parseInt(a.substr(n,2),16)^r,e+=String.fromCharCode(i);e=document.createTextNode(e),c.parentNode.replaceChild(e,c)}t.parentNode.removeChild(t);}}catch(u){}}()/* ]]&gt; */&lt;/script&gt;\nFormat settings, CABAC           : Yes\nFormat settings, ReFrames        : 4 frames\nMuxing mode                      : Header stripping\nCodec ID                         : V_MPEG4/ISO/AVC\nDuration                         : 2h 49mn\nBit rate                         : 573 Kbps\nWidth                            : 600 pixels\nHeight                           : 250 pixels\nDisplay aspect ratio             : 2.40:1\nFrame rate                       : 23.976 fps\nColor space                      : YUV\nChroma subsampling               : 4:2:0\nBit depth                        : 8 bits\nScan type                        : Progressive\nBits/(Pixel*Frame)               : 0.159\nStream size                      : 681 MiB (85%)\n\nAudio\nID                               : 2\nFormat                           : MPEG Audio\nFormat version                   : Version 1\nFormat profile                   : Layer 3\nMode                             : Joint stereo\nMode extension                   : MS Stereo\nMuxing mode                      : Header stripping\nCodec ID                         : A_MPEG/L3\nCodec ID/Hint                    : MP3\nDuration                         : 2h 49mn\nBit rate mode                    : Variable\nBit rate                         : 84.9 Kbps\nNominal bit rate                 : 96.0 Kbps\nChannel(s)                       : 2 channels\nSampling rate                    : 32.0 KHz\nCompression mode                 : Lossy\nStream size                      : 103 MiB (13%)\nTitle                            : Deadman\nWriting library                  : LAME3.98r\nEncoding settings                : -m j -V 4 -q 2 -lowpass 15.1 --abr 96[/QUOTE]\n\n[HIDE-THANKS][CENTER] &lt;a href=&quot;\nhttp://i.imgur.com/ba9hZ.jpg&quot; rel=&quot;nofollow&quot; target=&quot;_NEW&quot;&gt;\nhttp://i.imgur.com/ba9hZ.jpg&lt;/a&gt; &lt;a href=&quot;\nhttp://i.imgur.com/Enryd.jpg&quot; rel=&quot;nofollow&quot; target=&quot;_NEW&quot;&gt;\nhttp://i.imgur.com/Enryd.jpg&lt;/a&gt; &lt;a href=&quot;\nhttp://i.imgur.com/5DAd8.jpg&quot; rel=&quot;nofollow&quot; target=&quot;_NEW&quot;&gt;\nhttp://i.imgur.com/5DAd8.jpg&lt;/a&gt; &lt;a href=&quot;\nhttp://i.imgur.com/5I8Mh.jpg&quot; rel=&quot;nofollow&quot; target=&quot;_NEW&quot;&gt;\nhttp://i.imgur.com/5I8Mh.jpg&lt;/a&gt; &lt;a href=&quot;\nhttp://i.imgur.com/MTuOi.jpg&quot; rel=&quot;nofollow&quot; target=&quot;_NEW&quot;&gt;\nhttp://i.imgur.com/MTuOi.jpg&lt;/a&gt; &lt;a href=&quot;\nhttp://i.imgur.com/tbTMY.jpg&quot; rel=&quot;nofollow&quot; target=&quot;_NEW&quot;&gt;\nhttp://i.imgur.com/tbTMY.jpg&lt;/a&gt; &lt;a href=&quot;\nhttp://i.imgur.com/EGSkD.jpg&quot; rel=&quot;nofollow&quot; target=&quot;_NEW&quot;&gt;\nhttp://i.imgur.com/EGSkD.jpg&lt;/a&gt; &lt;a href=&quot;\nhttp://i.imgur.com/2meKd.png&quot; rel=&quot;nofollow&quot; target=&quot;_NEW&quot;&gt;\nhttp://i.imgur.com/2meKd.png&lt;/a&gt; &lt;a href=&quot;\nhttp://i.imgur.com/IYIEw.jpg&quot; rel=&quot;nofollow&quot; target=&quot;_NEW&quot;&gt;\nhttp://i.imgur.com/IYIEw.jpg&lt;/a&gt; &lt;a href=&quot;\nhttp://i.imgur.com/fUOs4.png&quot; rel=&quot;nofollow&quot; target=&quot;_NEW&quot;&gt;\nhttp://i.imgur.com/fUOs4.png&lt;/a&gt;\n[/CENTER]\n[/HIDE-THANKS]\n\n[CENTER][IMG]http://www.guelphpc.ca/images/facebook-logo.jpg[/IMG]\n[SIZE=&quot;5&quot;][COLOR=&quot;Black&quot;][FONT=&quot;Comic Sans MS&quot;]Clickto Join us on FB\n\n\n[I][U][SIZE=&quot;6&quot;][FONT=&quot;Century Gothic&quot;][COLOR=&quot;Purple&quot;]Clickto add reputition if U like My post Thx In advance!![/COLOR][/FONT][/SIZE][/U][/I]\n\n[IMG]http://i648.photobucket.com/albums/uu204/sabeer4031/2qw0853.gif[/IMG]\n\n[IMG]http://s1.eih.bz/images/03e855da.gif[/IMG][/CENTER]","torrent":{"xt":"urn:btih:042abc1db14fed134a30b6b38d59d8955ee1a0e3","amp;dn":"Mausam+%282011%29+%28Best+print%29+DVDscr+%7B-%3DMTR%3D-+Sohi%7D+","amp;tr":["udp%3A%2F%2Ftracker.openbittorrent.com%3A80","udp%3A%2F%2Fopen.demonii.com%3A1337","udp%3A%2F%2Ftracker.coppersurfer.tk%3A6969","udp%3A%2F%2Fexodus.desync.com%3A6969"],"infoHash":"042abc1db14fed134a30b6b38d59d8955ee1a0e3","infoHashBuffer":{"type":"Buffer","data":[4,42,188,29,177,79,237,19,74,48,182,179,141,89,216,149,94,225,160,227]},"announce":[],"urlList":[]}}